<?xml version="1.0" standalone="no"?>
<!DOCTYPE svg PUBLIC "-//W3C//DTD SVG 20010904//EN"
 "http://www.w3.org/TR/2001/REC-SVG-20010904/DTD/svg10.dtd">
<svg version="1.0" xmlns="http://www.w3.org/2000/svg"
 width="260.000000pt" height="260.000000pt" viewBox="0 0 260.000000 260.000000"
 preserveAspectRatio="xMidYMid meet">
<metadata>
Created by potrace 1.11, written by Peter Selinger 2001-2013
</metadata>
<g transform="translate(0.000000,260.000000) scale(0.100000,-0.100000)"
fill="#000000" stroke="none">
<path d="M0 1300 l0 -1300 273 0 273 0 0 248 -1 247 235 0 235 0 -1 -248 0
-247 285 2 286 3 0 245 0 245 235 0 235 0 -1 -247 0 -248 273 0 273 0 0 1300
0 1300 -1300 0 -1300 0 0 -1300z m1010 743 c4 -10 5 -378 1 -443 -1 -13 -34
-15 -234 -15 l-232 0 0 230 c0 171 3 231 12 235 7 3 110 5 230 5 161 0 219 -3
223 -12z m1040 8 c4 -1 5 -370 1 -446 -1 -19 -7 -20 -223 -18 -123 0 -227 1
-233 2 -8 1 -13 388 -6 456 1 6 83 9 228 8 126 0 230 -2 233 -2z"/>
</g>
</svg>
